<svg width="32" height="32" viewBox="0 0 32 32" fill="none" xmlns="http://www.w3.org/2000/svg">
  <rect width="32" height="32" rx="8" fill="#1e1541"/>
  <path d="M16.5 7C12.9 7 10.5 9.1 10.5 12c0 2.2 1.4 3.7 4.2 4.4l2.8.7c1.8.4 2.5 1.1 2.5 2.1 0 1.3-1.2 2.2-3.1 2.2-2 0-3.3-.9-3.5-2.5H10c.2 3.1 2.6 5 6.4 5 3.7 0 6.1-2 6.1-5 0-2.3-1.5-3.8-4.3-4.5l-2.7-.6c-1.7-.4-2.5-1-2.5-2 0-1.2 1.1-2.1 2.8-2.1 1.7 0 2.9.9 3 2.3h3.4C22.1 9 19.8 7 16.5 7z" fill="url(#grad)"/>
  <defs>
    <linearGradient id="grad" x1="10" y1="7" x2="22.5" y2="24" gradientUnits="userSpaceOnUse">
      <stop stop-color="#ef2b70"/>
      <stop offset="1" stop-color="#22c55e"/>
    </linearGradient>
  </defs>
</svg>
